<svg width="24" height="24" viewBox="0 0 24 24" fill="none" xmlns="http://www.w3.org/2000/svg">
<path fill-rule="evenodd" clip-rule="evenodd" d="M17.6534 16.2392C20.2897 12.903 20.0677 8.04686 16.9875 4.96663C13.668 1.64717 8.2861 1.64717 4.96664 4.96663C1.64719 8.28608 1.64719 13.668 4.96664 16.9874C8.04688 20.0677 12.903 20.2897 16.2392 17.6534L19.8159 21.2301C20.2064 21.6206 20.8396 21.6206 21.2301 21.2301C21.6206 20.8396 21.6206 20.2064 21.2301 19.8159L17.6534 16.2392ZM15.5732 6.38084C18.1117 8.91925 18.1117 13.0348 15.5732 15.5732C13.0348 18.1116 8.91926 18.1116 6.38086 15.5732C3.84245 13.0348 3.84245 8.91925 6.38086 6.38084C8.91926 3.84243 13.0348 3.84243 15.5732 6.38084Z" fill="#B7B7B7"/>
</svg>
